<?xml version="1.0" encoding="UTF-8" standalone="no"?>
<svg
   width="64"
   height="64"
   viewBox="0 0 16.933 16.933"
   version="1.1"
   id="svg2486"
   sodipodi:docname="discord.svg"
   inkscape:version="1.2.1 (9c6d41e410, 2022-07-14)"
   xmlns:inkscape="http://www.inkscape.org/namespaces/inkscape"
   xmlns:sodipodi="http://sodipodi.sourceforge.net/DTD/sodipodi-0.dtd"
   xmlns="http://www.w3.org/2000/svg"
   xmlns:svg="http://www.w3.org/2000/svg">
  <defs
     id="defs2490" />
  <sodipodi:namedview
     id="namedview2488"
     pagecolor="#505050"
     bordercolor="#eeeeee"
     borderopacity="1"
     inkscape:showpageshadow="0"
     inkscape:pageopacity="0"
     inkscape:pagecheckerboard="0"
     inkscape:deskcolor="#505050"
     showgrid="false"
     inkscape:zoom="11.90625"
     inkscape:cx="32.08399"
     inkscape:cy="32"
     inkscape:window-width="1850"
     inkscape:window-height="1011"
     inkscape:window-x="0"
     inkscape:window-y="0"
     inkscape:window-maximized="1"
     inkscape:current-layer="svg2486" />
  <g
     transform="matrix(0.22323779,0,0,0.22323779,-291.56509,-161.19422)"
     id="g400"
     style="clip-rule:evenodd;fill-rule:evenodd;stroke-linejoin:round;stroke-miterlimit:2">
    <g
       transform="translate(800,216)"
       id="g394">
      <path
         d="m 576,544 c 0,-17.673 -14.327,-32 -32,-32 0,0 0,0 0,0 -17.673,0 -32,14.327 -32,32 0,0 0,0 0,0 0,17.673 14.327,32 32,32 v 0 c 17.673,0 32,-14.327 32,-32 z"
         style="fill:#5865f2"
         id="path392" />
    </g>
    <g
       transform="matrix(0.591549,0,0,0.591549,1323,743.75)"
       id="g398">
      <path
         d="M 60.105,4.898 C 55.579,2.821 50.727,1.292 45.653,0.415 45.56,0.399 45.468,0.441 45.42,0.525 44.796,1.635 44.105,3.083 43.621,4.222 38.164,3.405 32.734,3.405 27.389,4.222 26.905,3.058 26.189,1.635 25.562,0.525 25.514,0.444 25.422,0.401 25.329,0.415 20.258,1.289 15.406,2.819 10.878,4.898 10.838,4.915 10.805,4.943 10.783,4.98 1.578,18.731 -0.944,32.144 0.293,45.391 c 0.006,0.065 0.042,0.127 0.093,0.167 6.073,4.459 11.955,7.167 17.729,8.962 0.092,0.028 0.19,-0.006 0.249,-0.082 1.366,-1.865 2.583,-3.832 3.627,-5.9 0.061,-0.121 0.003,-0.264 -0.123,-0.312 -1.931,-0.733 -3.77,-1.626 -5.539,-2.64 -0.14,-0.082 -0.151,-0.282 -0.022,-0.378 0.372,-0.279 0.744,-0.569 1.1,-0.862 0.064,-0.053 0.154,-0.065 0.229,-0.031 11.62,5.305 24.199,5.305 35.682,0 0.076,-0.036 0.165,-0.025 0.232,0.028 0.356,0.293 0.728,0.586 1.103,0.865 0.129,0.096 0.12,0.296 -0.02,0.378 -1.768,1.034 -3.607,1.907 -5.541,2.637 -0.126,0.048 -0.182,0.194 -0.12,0.315 1.066,2.065 2.283,4.032 3.624,5.897 0.056,0.079 0.157,0.113 0.249,0.085 5.801,-1.795 11.684,-4.503 17.757,-8.962 0.053,-0.04 0.087,-0.099 0.092,-0.164 C 72.175,30.079 68.215,16.776 60.197,4.982 60.177,4.943 60.144,4.915 60.105,4.898 Z M 23.726,37.325 c -3.498,0 -6.381,-3.211 -6.381,-7.156 0,-3.944 2.827,-7.156 6.381,-7.156 3.582,0 6.437,3.24 6.381,7.156 0,3.945 -2.827,7.156 -6.381,7.156 z m 23.592,0 c -3.498,0 -6.381,-3.211 -6.381,-7.156 0,-3.944 2.827,-7.156 6.381,-7.156 3.582,0 6.437,3.24 6.381,7.156 0,3.945 -2.799,7.156 -6.381,7.156 z"
         style="fill:#ffffff;fill-rule:nonzero"
         id="path396" />
    </g>
  </g>
</svg>
