<?xml version="1.0" encoding="UTF-8" standalone="no"?>
<svg
   width="64"
   height="64"
   viewBox="0 0 16.933 16.933"
   version="1.1"
   id="svg20"
   sodipodi:docname="firefox.svg"
   inkscape:version="1.2.1 (9c6d41e410, 2022-07-14)"
   xmlns:inkscape="http://www.inkscape.org/namespaces/inkscape"
   xmlns:sodipodi="http://sodipodi.sourceforge.net/DTD/sodipodi-0.dtd"
   xmlns="http://www.w3.org/2000/svg"
   xmlns:svg="http://www.w3.org/2000/svg">
  <defs
     id="defs24" />
  <sodipodi:namedview
     id="namedview22"
     pagecolor="#505050"
     bordercolor="#eeeeee"
     borderopacity="1"
     inkscape:showpageshadow="0"
     inkscape:pageopacity="0"
     inkscape:pagecheckerboard="0"
     inkscape:deskcolor="#505050"
     showgrid="true"
     inkscape:zoom="2.858315"
     inkscape:cx="-19.242106"
     inkscape:cy="-20.991388"
     inkscape:window-width="1850"
     inkscape:window-height="1011"
     inkscape:window-x="0"
     inkscape:window-y="0"
     inkscape:window-maximized="1"
     inkscape:current-layer="svg20">
    <inkscape:grid
       type="xygrid"
       id="grid970" />
  </sodipodi:namedview>
  <g
     transform="matrix(0.22323779,0,0,0.22323779,-120.11847,-109.40033)"
     id="g326"
     style="clip-rule:evenodd;fill-rule:evenodd;stroke-width:0.185;stroke-linejoin:round;stroke-miterlimit:2">
    <g
       transform="translate(32,-16.0122)"
       id="g320">
      <path
         d="m 576,544 c 0,-17.673 -14.327,-32 -32,-32 0,0 0,0 0,0 -17.673,0 -32,14.327 -32,32 0,0 0,0 0,0 0,17.673 14.327,32 32,32 v 0 c 17.673,0 32,-14.327 32,-32 z"
         style="fill:#ff8000"
         id="path318" />
    </g>
    <g
       transform="matrix(0.0834147,0,0,0.0834147,554.675,506.666)"
       id="g324">
      <path
         d="m 130.22,127.548 c 0.16,0.01 0.08,0.01 0,0 z m 351.42,45.35 c -10.61,-25.5 -32.08,-53 -48.94,-61.73 13.72,26.89 21.67,53.88 24.7,74 0.005,0.138 0.022,0.275 0.05,0.41 C 429.87,116.828 383.098,89.109 344.9,28.748 329.908,5.058 333.976,3.518 331.82,4.088 l -0.12,0.07 c -46.71,25.953 -75.335,78.371 -82.58,122.74 -16.617,0.873 -32.901,4.997 -47.93,12.137 -1.352,0.614 -2.454,1.671 -3.124,2.996 -0.67,1.325 -0.867,2.839 -0.56,4.292 0.194,0.839 0.562,1.628 1.08,2.316 0.517,0.688 1.174,1.26 1.926,1.679 0.752,0.419 1.584,0.675 2.442,0.753 0.857,0.077 1.722,-0.026 2.537,-0.303 l 0.52,-0.21 c 15.5,-7.303 32.397,-11.165 49.53,-11.32 62.828,-0.569 97.157,44.024 107.62,62.29 -13,-9.15 -36.35,-18.19 -58.82,-14.28 87.74,43.86 64.2,194.536 -57.39,189.2 -59.464,-2.61 -97.07,-50.981 -100.53,-90.8 0,0 11.25,-41.95 80.62,-41.95 7.5,0 28.93,-20.92 29.33,-27 -0.09,-2 -42.535,-18.876 -59.09,-35.18 -8.847,-8.713 -13.052,-12.907 -16.77,-16.06 -2.012,-1.708 -4.119,-3.3 -6.31,-4.77 -5.563,-19.457 -5.802,-40.05 -0.691,-59.63 -25.06,11.41 -44.55,29.45 -58.71,45.37 h -0.12 c -9.67,-12.25 -9,-52.65 -8.43,-61.08 -0.12,-0.53 -7.228,3.668 -8.15,4.31 -8.566,6.052 -16.547,12.892 -23.84,20.43 -16.291,16.6 -44.132,50.154 -55.5,101.23 -4.536,20.383 -6.76,44.421 -6.76,52.3 0,134.7 109.21,243.89 243.92,243.89 120.64,0 223.019,-87.227 240.43,-202.62 11.572,-76.696 -14.71,-131.068 -14.71,-131.99 z"
         style="fill:#ffffff;fill-rule:nonzero"
         id="path322" />
    </g>
  </g>
</svg>
