<?xml version="1.0" encoding="UTF-8" standalone="no"?>
<svg
   width="64"
   height="64"
   viewBox="0 0 16.933 16.933"
   version="1.1"
   id="svg8"
   sodipodi:docname="intellij.svg"
   inkscape:version="1.2.1 (9c6d41e410, 2022-07-14)"
   xmlns:inkscape="http://www.inkscape.org/namespaces/inkscape"
   xmlns:sodipodi="http://sodipodi.sourceforge.net/DTD/sodipodi-0.dtd"
   xmlns="http://www.w3.org/2000/svg"
   xmlns:svg="http://www.w3.org/2000/svg">
  <defs
     id="defs12" />
  <sodipodi:namedview
     id="namedview10"
     pagecolor="#505050"
     bordercolor="#eeeeee"
     borderopacity="1"
     inkscape:showpageshadow="0"
     inkscape:pageopacity="0"
     inkscape:pagecheckerboard="0"
     inkscape:deskcolor="#505050"
     showgrid="false"
     inkscape:zoom="2.4513402"
     inkscape:cx="45.485323"
     inkscape:cy="61.394987"
     inkscape:window-width="998"
     inkscape:window-height="818"
     inkscape:window-x="35"
     inkscape:window-y="32"
     inkscape:window-maximized="0"
     inkscape:current-layer="svg8" />
  <path
     d="M15.61 8.466a7.144 7.144 0 0 1-7.144 7.144 7.144 7.144 0 0 1-7.143-7.144 7.144 7.144 0 0 1 7.143-7.143 7.144 7.144 0 0 1 7.144 7.143z"
     fill="#998be7"
     id="path2"
     style="fill:#e82f2f;fill-opacity:1" />
  <rect
     x="4.498"
     y="4.498"
     width="7.937"
     height="7.937"
     rx="1.323"
     ry="1.323"
     fill="#303030"
     style="paint-order:markers stroke fill;fill:#ffffff;fill-opacity:1"
     id="rect4" />
  <path
     d="M7.535 5.982V5.36H5.67v.62h.621v2.175h-.62v.621h1.863v-.621h-.621V5.982m2.047 2.79c-.375-.043-.64-.288-.875-.504l.377-.426c.124.129.31.283.504.309.194.025.443.004.592-.123.15-.127.15-.3.15-.505V5.361h.621l-.002 2.2c.002.437-.164.732-.317.897-.246.251-.564.277-.86.318m-4.1 2.176h3.106v.621H5.05z"
     fill="#f0f0f0"
     id="path6"
     style="fill:#e82f2f;fill-opacity:1" />
</svg>
