<?xml version="1.0" encoding="UTF-8" standalone="no"?>
<svg
   width="64"
   height="64"
   viewBox="0 0 16.933 16.933"
   version="1.1"
   id="svg2894"
   sodipodi:docname="gnome-settings.svg"
   inkscape:version="1.2.1 (9c6d41e410, 2022-07-14)"
   xmlns:inkscape="http://www.inkscape.org/namespaces/inkscape"
   xmlns:sodipodi="http://sodipodi.sourceforge.net/DTD/sodipodi-0.dtd"
   xmlns="http://www.w3.org/2000/svg"
   xmlns:svg="http://www.w3.org/2000/svg">
  <defs
     id="defs2898" />
  <sodipodi:namedview
     id="namedview2896"
     pagecolor="#505050"
     bordercolor="#eeeeee"
     borderopacity="1"
     inkscape:showpageshadow="0"
     inkscape:pageopacity="0"
     inkscape:pagecheckerboard="0"
     inkscape:deskcolor="#505050"
     showgrid="false"
     inkscape:zoom="11.90625"
     inkscape:cx="32.08399"
     inkscape:cy="32"
     inkscape:window-width="1850"
     inkscape:window-height="1011"
     inkscape:window-x="0"
     inkscape:window-y="0"
     inkscape:window-maximized="1"
     inkscape:current-layer="svg2894" />
  <g
     transform="matrix(0.22323779,0,0,0.22323779,-284.42148,-195.12636)"
     id="g468"
     style="clip-rule:evenodd;fill-rule:evenodd;stroke-linejoin:round;stroke-miterlimit:2">
    <g
       transform="translate(768,368)"
       id="g462">
      <path
         d="m 576,544 c 0,-17.673 -14.327,-32 -32,-32 0,0 0,0 0,0 -17.673,0 -32,14.327 -32,32 0,0 0,0 0,0 0,17.673 14.327,32 32,32 v 0 c 17.673,0 32,-14.327 32,-32 z"
         style="fill:#989fb3"
         id="path460" />
    </g>
    <g
       transform="matrix(0.357143,0,0,0.357143,820.571,672)"
       id="g466">
      <path
         d="m 1386.14,628.857 c 0.25,1.484 1.31,2.704 2.75,3.156 2.17,0.693 4.26,1.565 6.27,2.594 1.33,0.697 2.94,0.585 4.16,-0.289 2.14,-1.516 5.5,-3.913 7.86,-5.603 1.6,-1.137 3.77,-0.956 5.16,0.426 1.92,1.92 4.6,4.602 6.52,6.522 1.38,1.382 1.56,3.562 0.43,5.153 -1.7,2.368 -4.1,5.727 -5.62,7.859 -0.87,1.227 -0.99,2.841 -0.29,4.177 1.04,1.996 1.91,4.088 2.61,6.258 0.45,1.432 1.66,2.49 3.15,2.737 2.58,0.439 6.65,1.118 9.52,1.596 1.93,0.321 3.34,1.99 3.34,3.946 0,2.715 0,6.507 0,9.222 0,1.956 -1.41,3.625 -3.34,3.946 -2.87,0.479 -6.95,1.158 -9.53,1.589 -1.49,0.247 -2.71,1.306 -3.16,2.741 -0.69,2.168 -1.56,4.257 -2.59,6.254 -0.7,1.333 -0.58,2.944 0.29,4.168 1.52,2.14 3.92,5.505 5.62,7.875 1.13,1.591 0.95,3.771 -0.43,5.153 -1.92,1.92 -4.6,4.602 -6.52,6.522 -1.39,1.382 -3.56,1.563 -5.16,0.426 -2.37,-1.694 -5.74,-4.099 -7.87,-5.624 -1.23,-0.876 -2.84,-0.988 -4.18,-0.291 -1.99,1.032 -4.07,1.901 -6.24,2.599 -1.43,0.452 -2.49,1.669 -2.73,3.15 -0.44,2.585 -1.12,6.665 -1.6,9.539 -0.32,1.928 -1.99,3.342 -3.95,3.342 -2.71,0 -6.51,0 -9.22,0 -1.96,0 -3.63,-1.414 -3.95,-3.342 -0.48,-2.874 -1.16,-6.954 -1.59,-9.541 -0.24,-1.484 -1.3,-2.703 -2.74,-3.156 -2.17,-0.69 -4.25,-1.559 -6.25,-2.583 -1.33,-0.696 -2.94,-0.584 -4.17,0.29 -2.13,1.518 -5.5,3.923 -7.87,5.617 -1.59,1.137 -3.77,0.956 -5.16,-0.426 -1.92,-1.92 -4.6,-4.602 -6.52,-6.522 -1.38,-1.382 -1.56,-3.562 -0.43,-5.153 1.7,-2.37 4.1,-5.735 5.63,-7.87 0.87,-1.226 0.98,-2.841 0.28,-4.177 -1.03,-1.993 -1.9,-4.082 -2.6,-6.248 -0.45,-1.431 -1.67,-2.488 -3.15,-2.734 -2.58,-0.44 -6.66,-1.119 -9.53,-1.598 -1.93,-0.321 -3.34,-1.99 -3.34,-3.946 0,-2.715 0,-6.507 0,-9.222 0,-1.956 1.41,-3.625 3.34,-3.946 2.87,-0.478 6.94,-1.157 9.53,-1.587 1.48,-0.248 2.7,-1.308 3.15,-2.744 0.69,-2.172 1.57,-4.264 2.59,-6.264 0.7,-1.333 0.58,-2.944 -0.29,-4.167 -1.51,-2.138 -3.91,-5.497 -5.61,-7.865 -1.13,-1.591 -0.95,-3.771 0.43,-5.153 1.92,-1.92 4.6,-4.602 6.52,-6.522 1.39,-1.382 3.57,-1.563 5.16,-0.426 2.36,1.69 5.72,4.087 7.85,5.61 1.23,0.876 2.84,0.988 4.18,0.289 2,-1.036 4.09,-1.908 6.26,-2.609 1.43,-0.451 2.49,-1.668 2.74,-3.15 0.44,-2.58 1.11,-6.645 1.59,-9.513 0.32,-1.928 1.99,-3.342 3.95,-3.342 2.71,0 6.51,0 9.22,0 1.96,0 3.63,1.414 3.95,3.342 0.48,2.868 1.15,6.933 1.58,9.515 z M 1376,649.988 c 12.14,0 22,9.858 22,22 0,12.142 -9.86,22 -22,22 -12.14,0 -22,-9.858 -22,-22 0,-12.142 9.86,-22 22,-22 z"
         style="fill:#ffffff"
         id="path464" />
    </g>
  </g>
</svg>
