<?xml version="1.0" encoding="UTF-8" standalone="no"?>
<svg
   width="64"
   height="64"
   version="1"
   id="svg8"
   sodipodi:docname="spotify.svg"
   inkscape:version="1.2.1 (9c6d41e410, 2022-07-14)"
   xmlns:inkscape="http://www.inkscape.org/namespaces/inkscape"
   xmlns:sodipodi="http://sodipodi.sourceforge.net/DTD/sodipodi-0.dtd"
   xmlns="http://www.w3.org/2000/svg"
   xmlns:svg="http://www.w3.org/2000/svg">
  <defs
     id="defs12" />
  <sodipodi:namedview
     id="namedview10"
     pagecolor="#505050"
     bordercolor="#eeeeee"
     borderopacity="1"
     inkscape:showpageshadow="0"
     inkscape:pageopacity="0"
     inkscape:pagecheckerboard="0"
     inkscape:deskcolor="#505050"
     showgrid="true"
     inkscape:zoom="11.90625"
     inkscape:cx="32.251969"
     inkscape:cy="32"
     inkscape:window-width="1850"
     inkscape:window-height="1011"
     inkscape:window-x="0"
     inkscape:window-y="0"
     inkscape:window-maximized="1"
     inkscape:current-layer="g420">
    <inkscape:grid
       type="xygrid"
       id="grid2064" />
  </sodipodi:namedview>
  <g
     transform="matrix(0.84375,0,0,0.84375,-1075,-400.00127)"
     id="g420"
     style="clip-rule:evenodd;fill-rule:evenodd;stroke-linejoin:round;stroke-miterlimit:2">
    <g
       transform="translate(768,-31.9985)"
       id="g414">
      <path
         d="m 576,544 c 0,-17.673 -14.327,-32 -32,-32 0,0 0,0 0,0 -17.673,0 -32,14.327 -32,32 0,0 0,0 0,0 0,17.673 14.327,32 32,32 v 0 c 17.673,0 32,-14.327 32,-32 z"
         style="fill:#28be5d;fill-opacity:1"
         id="path412" />
    </g>
    <g
       transform="matrix(0.335484,0,0,0.335484,1283.73,483.812)"
       id="g418">
      <path
         d="m 122.4,121.057 c -1.5,2.46 -4.72,3.24 -7.18,1.73 -19.662,-12.01 -44.414,-14.73 -73.564,-8.07 -2.809,0.64 -5.609,-1.12 -6.249,-3.93 -0.643,-2.81 1.11,-5.61 3.926,-6.25 31.9,-7.288 59.263,-4.15 81.337,9.34 2.46,1.51 3.24,4.72 1.73,7.18 z m 10.25,-22.802 c -1.89,3.072 -5.91,4.042 -8.98,2.152 -22.51,-13.836 -56.823,-17.843 -83.448,-9.761 -3.453,1.043 -7.1,-0.903 -8.148,-4.35 -1.04,-3.453 0.907,-7.093 4.354,-8.143 30.413,-9.228 68.222,-4.758 94.072,11.127 3.07,1.89 4.04,5.91 2.15,8.976 z m 0.88,-23.744 C 106.54,58.48 62.01,57.006 36.241,64.827 c -4.138,1.255 -8.514,-1.081 -9.768,-5.219 -1.254,-4.14 1.08,-8.513 5.221,-9.771 29.581,-8.98 78.756,-7.245 109.83,11.202 3.73,2.209 4.95,7.016 2.74,10.733 -2.2,3.722 -7.02,4.949 -10.73,2.739 z"
         style="fill:#ffffff;fill-rule:nonzero"
         id="path416" />
    </g>
  </g>
</svg>
